<svg xmlns="http://www.w3.org/2000/svg" viewBox="0 0 1672.51 359.71"><defs><style>.cls-1{fill:#fff;}</style></defs><g id="Capa_2" data-name="Capa 2"><g id="Capa_1-2" data-name="Capa 1"><g id="Layer-1"><path class="cls-1" d="M349.91,147.4h-5.76a2.14,2.14,0,0,1-1.57-.64,2.25,2.25,0,0,1-.59-1.62V96.51a2.31,2.31,0,0,1,.59-1.63,2.13,2.13,0,0,1,1.57-.63h5.76a2.26,2.26,0,0,1,1.61.63,2.31,2.31,0,0,1,.64,1.63v48.63a2.19,2.19,0,0,1-2.25,2.26"/><path class="cls-1" d="M396.84,118v27.12a2.29,2.29,0,0,1-.64,1.63,2.2,2.2,0,0,1-1.62.63h-5.72a2.12,2.12,0,0,1-1.55-.63,2.4,2.4,0,0,1-.66-1.63V95.38a1.08,1.08,0,0,1,.91-1.11,1.69,1.69,0,0,1,1.58.38l31.94,30.17c.49.47.9.62,1.21.47s.46-.54.46-1.17V96.51a2.26,2.26,0,0,1,.68-1.63,2.1,2.1,0,0,1,1.59-.64h5.66a2.1,2.1,0,0,1,1.59.64,2.29,2.29,0,0,1,.67,1.63v49.67a1,1,0,0,1-.92,1.11,2,2,0,0,1-1.63-.37l-31.86-29.69c-.5-.41-.88-.53-1.2-.38s-.49.53-.49,1.17"/><path class="cls-1" d="M465.1,138.61l3-4.5a2.09,2.09,0,0,1,1.4-.94,2.11,2.11,0,0,1,1.67.37c2.2,1.33,4.33,2.48,6.41,3.48a20.12,20.12,0,0,0,9,2,13.08,13.08,0,0,0,4.35-.66,10.52,10.52,0,0,0,3.22-1.59,6.65,6.65,0,0,0,1.91-2.25,4.73,4.73,0,0,0,.66-2.47,4,4,0,0,0-1-2.73,7.19,7.19,0,0,0-2.6-1.84,14.63,14.63,0,0,0-1.76-.68,19.57,19.57,0,0,0-2.11-.57c-.72-.21-1.45-.37-2.2-.54l-2.36-.42-1.78-.3c-.64-.16-1.28-.31-2-.42a25.35,25.35,0,0,1-4.37-1.09,20.9,20.9,0,0,1-4.42-1.82,15.64,15.64,0,0,1-4-2.84,13.27,13.27,0,0,1-2.83-4.08,15,15,0,0,1-1-5.52,14.82,14.82,0,0,1,1.9-7.79,14.19,14.19,0,0,1,4.78-4.87,22.35,22.35,0,0,1,6.54-2.49,35.27,35.27,0,0,1,7-.73,40.79,40.79,0,0,1,6,.44c.88.16,1.72.35,2.49.57s1.59.44,2.39.66,1.5.63,2.3,1,1.35.74,2.05,1.12a12.72,12.72,0,0,0,1.45.85,9.25,9.25,0,0,0,1.41.88,2.38,2.38,0,0,1,.93,1.47,2,2,0,0,1-.44,1.67l-3.06,4.38a2,2,0,0,1-1.52.92,2.19,2.19,0,0,1-1.66-.36,26.28,26.28,0,0,0-5.37-2.71,18.87,18.87,0,0,0-7.35-1.41,12.49,12.49,0,0,0-1.44.08c-.52,0-1,.12-1.57.19a13.41,13.41,0,0,0-3.2,1.14,8.28,8.28,0,0,0-1.32.75,5.7,5.7,0,0,0-1.16,1,4.24,4.24,0,0,0-.93,2.79,3.53,3.53,0,0,0,1.17,2.68,9.44,9.44,0,0,0,2.93,1.82,16.35,16.35,0,0,0,2,.65l2.05.59c.75.2,1.44.34,2.16.5s1.4.31,2.08.52a14,14,0,0,1,1.66.38c.58.12,1.19.26,1.94.35a18.76,18.76,0,0,1,2,.4,16.36,16.36,0,0,1,2.19.62,8.27,8.27,0,0,1,1.22.34c.41.16.82.33,1.24.45s1.22.56,1.95.94a12.42,12.42,0,0,1,1.9,1.17,6.61,6.61,0,0,1,1.09.78,6.06,6.06,0,0,1,.92.83,12.9,12.9,0,0,1,2.77,4.21,15.29,15.29,0,0,1,1.07,6.13,17.79,17.79,0,0,1-1.46,7.22,13.61,13.61,0,0,1-4.13,5,17.47,17.47,0,0,1-6.39,3,32.26,32.26,0,0,1-8.25,1,36.78,36.78,0,0,1-7.34-.64,24.68,24.68,0,0,1-5.76-1.67c-.84-.34-1.69-.71-2.53-1.12s-1.65-.89-2.4-1.35c-.49-.3-.94-.6-1.45-.92s-1-.66-1.54-1a2.09,2.09,0,0,1-.94-1.4,2.34,2.34,0,0,1,.36-1.67"/><path class="cls-1" d="M572.89,103.17H562.18a2.21,2.21,0,0,0-2.25,2.28v39.69a2.09,2.09,0,0,1-.67,1.62,2.17,2.17,0,0,1-1.58.64H552a2.07,2.07,0,0,1-1.57-.64,2.23,2.23,0,0,1-.67-1.62V105.45a2.27,2.27,0,0,0-.64-1.64,2.3,2.3,0,0,0-1.59-.64H536.68a2.46,2.46,0,0,1-1.59-.62,2.43,2.43,0,0,1-.64-1.62V96.41a2.21,2.21,0,0,1,.64-1.59,2.25,2.25,0,0,1,1.59-.69h36.21a2.21,2.21,0,0,1,1.58.69,2.09,2.09,0,0,1,.63,1.59v4.52a2.28,2.28,0,0,1-.63,1.62,2.42,2.42,0,0,1-1.58.62"/><path class="cls-1" d="M612.91,147.4h-5.73a2.15,2.15,0,0,1-1.6-.64,2.27,2.27,0,0,1-.62-1.62V96.51a2.33,2.33,0,0,1,.62-1.63,2.14,2.14,0,0,1,1.6-.63h5.73a2.16,2.16,0,0,1,2.23,2.26v48.63a2.16,2.16,0,0,1-.63,1.62,2.24,2.24,0,0,1-1.6.64"/><path class="cls-1" d="M685.65,103.17H675a2.4,2.4,0,0,0-1.64.64,2.35,2.35,0,0,0-.63,1.64v39.69a2.22,2.22,0,0,1-.65,1.62,2.16,2.16,0,0,1-1.61.64h-5.67a2.22,2.22,0,0,1-1.62-.64,2.17,2.17,0,0,1-.64-1.62V105.45a2.21,2.21,0,0,0-2.26-2.28H649.51a2.39,2.39,0,0,1-1.6-.62,2.29,2.29,0,0,1-.68-1.62V96.41a2.09,2.09,0,0,1,.68-1.59,2.19,2.19,0,0,1,1.6-.69h36.14a2.33,2.33,0,0,1,1.63.69,2.17,2.17,0,0,1,.64,1.59v4.52a2.38,2.38,0,0,1-.64,1.62,2.55,2.55,0,0,1-1.63.62"/><path class="cls-1" d="M729.78,146.77a19.52,19.52,0,0,1-7.19-4.54,18.75,18.75,0,0,1-4.68-7,24.87,24.87,0,0,1-1.62-9.24V96.51a2.17,2.17,0,0,1,.69-1.63,2,2,0,0,1,1.49-.64h5.76a2.15,2.15,0,0,1,1.6.64,2.24,2.24,0,0,1,.68,1.63v29.37a15.11,15.11,0,0,0,1.26,6.63,15,15,0,0,0,3.2,4.14,11.39,11.39,0,0,0,4.18,2.11c.78.17,1.49.33,2.16.44a13.54,13.54,0,0,0,1.84.17,19.31,19.31,0,0,0,3.94-.61,10.12,10.12,0,0,0,4.15-2.11,12.32,12.32,0,0,0,3.28-4.14,15.54,15.54,0,0,0,1.28-6.63V96.51a2.34,2.34,0,0,1,.66-1.63,2.16,2.16,0,0,1,1.59-.64h5.69a2.15,2.15,0,0,1,1.6.64,2.29,2.29,0,0,1,.65,1.63v29.43a31.53,31.53,0,0,1-.38,4.87,24.56,24.56,0,0,1-1.22,4.37,20.78,20.78,0,0,1-4.55,7,21.21,21.21,0,0,1-7.23,4.54,26,26,0,0,1-9.46,1.61,25.3,25.3,0,0,1-9.37-1.61"/><path class="cls-1" d="M831,103.17H820.36a2.38,2.38,0,0,0-1.6.64,2.23,2.23,0,0,0-.68,1.64v39.69a2.11,2.11,0,0,1-.66,1.62,2,2,0,0,1-1.56.64h-5.7a2.14,2.14,0,0,1-2.22-2.26V105.45a2.23,2.23,0,0,0-.68-1.64,2.4,2.4,0,0,0-1.63-.64H794.87a2.46,2.46,0,0,1-1.59-.62,2.2,2.2,0,0,1-.63-1.62V96.41a2,2,0,0,1,.63-1.59,2.25,2.25,0,0,1,1.59-.69H831a2.23,2.23,0,0,1,1.61.69,2.13,2.13,0,0,1,.64,1.59v4.52a2.33,2.33,0,0,1-.64,1.62,2.44,2.44,0,0,1-1.61.62"/><path class="cls-1" d="M475.37,182.55a1.85,1.85,0,0,0-1.37.62,2.05,2.05,0,0,0-.66,1.55v68.73a56,56,0,0,0,3.54,20.47A42.48,42.48,0,0,0,487,289.26a43.82,43.82,0,0,0,15.79,9.86,56.86,56.86,0,0,0,20.82,3.55,58,58,0,0,0,20.94-3.55,46.26,46.26,0,0,0,15.77-9.86,44.23,44.23,0,0,0,10-15.34,53.74,53.74,0,0,0,2.61-9.71,59.45,59.45,0,0,0,.94-10.76V184.72a2,2,0,0,0-.65-1.55,2.05,2.05,0,0,0-1.59-.62H558.39a2,2,0,0,0-1.58.62,1.94,1.94,0,0,0-.64,1.55v68.57c0,6.68-1.11,12.34-3.38,16.81a30.81,30.81,0,0,1-8.48,10.73,25.59,25.59,0,0,1-10.86,5.47,43,43,0,0,1-9.83,1.46,32.52,32.52,0,0,1-4.8-.37c-1.59-.25-3.41-.63-5.32-1.11a27.81,27.81,0,0,1-10.79-5.47,33.68,33.68,0,0,1-8.28-10.68C492.14,265.62,491,260,491,253.29V184.72a2,2,0,0,0-.64-1.55,1.9,1.9,0,0,0-1.55-.62Z"/><path class="cls-1" d="M690.37,287.14l5.14,10.24a4.74,4.74,0,0,0,1.91,2.2,5.61,5.61,0,0,0,2.83.87h15.47l-.06-.12L656.79,182.71a.76.76,0,0,0-1.34,0L596.59,300.33l15.59.12a5.07,5.07,0,0,0,2.67-.85,6.38,6.38,0,0,0,2.09-2.22l4.88-10,29.35-58.17c1.39-3.24,3.69-3.74,5-3.74s3.59.5,5,3.89Z"/><path class="cls-1" d="M738.46,182.51l0,115.74a2.08,2.08,0,0,0,.64,1.59,1.74,1.74,0,0,0,1.4.61H753.9a2,2,0,0,0,1.54-.59,2.19,2.19,0,0,0,.63-1.61V235c0-3.46,1.57-4.9,2.86-5.5,1.82-.82,3.89-.45,6,1.21l74.54,69.41a1.46,1.46,0,0,0,.76.23V184.72a2,2,0,0,0-.61-1.55,2,2,0,0,0-1.57-.62H824.82a1.92,1.92,0,0,0-1.56.62,2,2,0,0,0-.66,1.55v64.49c0,3.48-1.58,4.91-2.89,5.51l-.6.3-1.27.1a6.45,6.45,0,0,1-4.24-1.92L739,182.71a.8.8,0,0,0-.57-.2"/><path class="cls-1" d="M870.1,182.35a2.2,2.2,0,0,0-2.19,2.21V195.1a2.22,2.22,0,0,0,2.19,2.23h25.12a8.23,8.23,0,0,1,8.34,8.27v92.65a2.13,2.13,0,0,0,.61,1.59,2,2,0,0,0,1.58.6H919a2.15,2.15,0,0,0,1.58-.6,2.09,2.09,0,0,0,.6-1.59V205.6a8.23,8.23,0,0,1,8.31-8.27h25a2.05,2.05,0,0,0,1.51-.66,2.1,2.1,0,0,0,.67-1.57V184.56A2,2,0,0,0,956,183a1.94,1.94,0,0,0-1.51-.65Z"/><path class="cls-1" d="M984.5,182.55a1.72,1.72,0,0,0-1.44.57,2.05,2.05,0,0,0-.62,1.6V298.25a2,2,0,0,0,.62,1.63,1.67,1.67,0,0,0,1.44.57h13.41a2.25,2.25,0,0,0,1.58-.61,2.15,2.15,0,0,0,.58-1.59V184.72a2,2,0,0,0-.58-1.55,2.13,2.13,0,0,0-1.58-.62Z"/><path class="cls-1" d="M1168.12,182.55a1.85,1.85,0,0,0-1.38.62,2,2,0,0,0-.65,1.55v68.73a56.24,56.24,0,0,0,3.53,20.47,41.27,41.27,0,0,0,10.15,15.34,43.39,43.39,0,0,0,15.77,9.86,56.73,56.73,0,0,0,20.81,3.55,57.82,57.82,0,0,0,20.93-3.55,46.07,46.07,0,0,0,15.77-9.86,44.45,44.45,0,0,0,10-15.34,56.35,56.35,0,0,0,2.62-9.71,61.45,61.45,0,0,0,.88-10.76V184.72a2,2,0,0,0-.63-1.55,2,2,0,0,0-1.55-.62h-13.23a2.17,2.17,0,0,0-2.25,2.17v68.57c0,6.68-1.08,12.34-3.34,16.81a31.22,31.22,0,0,1-8.51,10.73,25.46,25.46,0,0,1-10.87,5.47,42.8,42.8,0,0,1-9.81,1.46,32.45,32.45,0,0,1-4.81-.37c-1.61-.25-3.38-.63-5.31-1.11a27.48,27.48,0,0,1-10.79-5.47,33.9,33.9,0,0,1-8.31-10.68c-2.27-4.51-3.39-10.18-3.39-16.84V184.72a2.16,2.16,0,0,0-.6-1.55,2.06,2.06,0,0,0-1.61-.62Z"/><path class="cls-1" d="M1295.71,181.75a2,2,0,0,0-1.55.61,2.09,2.09,0,0,0-.65,1.58V296.85a2,2,0,0,0,.63,1.54,1.92,1.92,0,0,0,1.57.65h80.38a2.12,2.12,0,0,0,2.17-2.19v-10.8a2.07,2.07,0,0,0-2.17-2.17h-56.78a8.23,8.23,0,0,1-8.29-8.26V257.09a8.18,8.18,0,0,1,2.42-5.87,8,8,0,0,1,5.87-2.38h49.21a1.93,1.93,0,0,0,1.54-.66,2,2,0,0,0,.63-1.56v-11a2.07,2.07,0,0,0-2.17-2.15h-49.21a8.31,8.31,0,0,1-8.29-8.29v-20.4a8.26,8.26,0,0,1,8.29-8.27h56.78a2.12,2.12,0,0,0,1.58-.61,2,2,0,0,0,.59-1.54V183.94a2.08,2.08,0,0,0-.59-1.55,2.15,2.15,0,0,0-1.58-.64Z"/><path class="cls-1" d="M421.78,229v24.26c0,6.69-1.11,12.34-3.37,16.82a30.92,30.92,0,0,1-8.48,10.73,25.36,25.36,0,0,1-10.88,5.46,42.19,42.19,0,0,1-9.82,1.47,32.49,32.49,0,0,1-4.79-.37c-1.6-.25-3.41-.63-5.32-1.11a28.06,28.06,0,0,1-10.79-5.46A33.72,33.72,0,0,1,360,270.13c-2.28-4.52-3.41-10.17-3.41-16.85V229c0-6.69,1.11-12.34,3.38-16.82a30.81,30.81,0,0,1,8.48-10.73A25.51,25.51,0,0,1,379.36,196a42.73,42.73,0,0,1,9.82-1.46,31.53,31.53,0,0,1,4.81.37c1.59.25,3.39.63,5.31,1.1a28.16,28.16,0,0,1,10.79,5.47,34.06,34.06,0,0,1,8.28,10.7C420.65,216.7,421.78,222.34,421.78,229Zm14.15-20.64A42.58,42.58,0,0,0,425.79,193,43.91,43.91,0,0,0,410,183.18a56.86,56.86,0,0,0-20.82-3.55,58,58,0,0,0-20.94,3.55A46.36,46.36,0,0,0,352.47,193a44,44,0,0,0-10,15.34,52.74,52.74,0,0,0-2.62,9.71,60.33,60.33,0,0,0-.93,10.77v24.58a56,56,0,0,0,3.54,20.48,42.35,42.35,0,0,0,10.13,15.34,43.86,43.86,0,0,0,15.78,9.86,51,51,0,0,0,12.15,3v11.55a3.8,3.8,0,0,0,3.79,3.8h11.17a3.79,3.79,0,0,0,3.79-3.8V301.91a52.64,52.64,0,0,0,10.86-2.79,46.07,46.07,0,0,0,15.77-9.86,43.81,43.81,0,0,0,10-15.34,52.16,52.16,0,0,0,2.62-9.71,60.33,60.33,0,0,0,.93-10.77V228.86a56.39,56.39,0,0,0-3.52-20.48"/><path class="cls-1" d="M1116.4,229v24.26c0,6.69-1.12,12.34-3.39,16.82a30.67,30.67,0,0,1-8.47,10.73,25.38,25.38,0,0,1-10.87,5.46,42.34,42.34,0,0,1-9.82,1.47,32.42,32.42,0,0,1-4.8-.37c-1.6-.25-3.41-.63-5.33-1.11a28,28,0,0,1-10.78-5.46,34,34,0,0,1-8.29-10.69c-2.28-4.52-3.41-10.17-3.41-16.85V229c0-6.69,1.11-12.34,3.38-16.82a30.81,30.81,0,0,1,8.48-10.73A25.53,25.53,0,0,1,1074,196a42.88,42.88,0,0,1,9.83-1.46,31.21,31.21,0,0,1,4.8.37c1.6.25,3.41.63,5.33,1.1a28.12,28.12,0,0,1,10.78,5.47,33.77,33.77,0,0,1,8.28,10.7C1115.27,216.7,1116.4,222.34,1116.4,229Zm14.14-20.64A42.46,42.46,0,0,0,1120.4,193a44,44,0,0,0-15.78-9.86,57,57,0,0,0-20.83-3.55,57.93,57.93,0,0,0-20.93,3.55,46.21,46.21,0,0,0-15.78,9.86,44.07,44.07,0,0,0-9.95,15.34,52,52,0,0,0-2.62,9.71,59.4,59.4,0,0,0-.94,10.77v24.58a56.43,56.43,0,0,0,3.53,20.48,42.37,42.37,0,0,0,10.14,15.34,44,44,0,0,0,15.78,9.86,51.1,51.1,0,0,0,12.15,3v11.55a3.8,3.8,0,0,0,3.8,3.8h11.17a3.79,3.79,0,0,0,3.78-3.8V301.91a52.47,52.47,0,0,0,10.86-2.79,46.07,46.07,0,0,0,15.77-9.86,43.81,43.81,0,0,0,10-15.34,51.4,51.4,0,0,0,2.62-9.71,59.42,59.42,0,0,0,.93-10.77V228.86a56.39,56.39,0,0,0-3.52-20.48"/><path class="cls-1" d="M122,160.56v71.6c0,39.5,12.15,51,37.15,51s37.13-11.49,37.13-51v-71.6c0-39.51-12.15-51-37.13-51S122,121.05,122,160.56"/><path class="cls-1" d="M5.79,72.75A5.81,5.81,0,0,0,0,78.55v30.6A5.81,5.81,0,0,0,5.79,115H32.88v199.2a5.81,5.81,0,0,0,5.79,5.8h100.9c-40.27-7.22-62.21-37.57-62.21-82.75V155.5c0-45.17,21.94-75.53,62.21-82.75Z"/><path class="cls-1" d="M178.62,72.75c40.27,7.22,62.21,37.58,62.21,82.75v81.71c0,45.18-21.94,75.53-62.21,82.75h100.9a5.81,5.81,0,0,0,5.78-5.8V78.55a5.81,5.81,0,0,0-5.78-5.8Z"/><path class="cls-1" d="M38.67,0a5.81,5.81,0,0,0-5.79,5.79V36.41a5.81,5.81,0,0,0,5.79,5.79H68.16A5.81,5.81,0,0,0,74,36.41V5.79A5.81,5.81,0,0,0,68.16,0Z"/><path class="cls-1" d="M138.55,320v34a5.82,5.82,0,0,0,5.81,5.79h29.48a5.8,5.8,0,0,0,5.78-5.79V320Z"/><path class="cls-1" d="M1568.25,222.31c-2.67-1.58-7.24-2.6-11.65-2.6h-6v41.14h6.2c4.38,0,8.92-1,11.58-2.61a18.07,18.07,0,0,0,6.76-7.16,22.08,22.08,0,0,0,2.4-10.37v-.83a21.7,21.7,0,0,0-2.46-10.44,18.35,18.35,0,0,0-6.85-7.13"/><path class="cls-1" d="M1643.79,268.88a23.68,23.68,0,0,1-9.64,8.64,33.69,33.69,0,0,1-15.63,3.37,47,47,0,0,1-9.89-1c-2.12-.47-4.38-1.1-6.79-1.78l-2.72-.76c-2.21-.61-4.74-1.26-4.74-1.26l-.31-.08.88-19.78h7.51v.39c0,3.19.43,11.83,1.7,13.47.5.63,1.88,1.64,5.67,2.87a28.43,28.43,0,0,0,8.78,1.3c5.22,0,9.24-1.17,11.93-3.49s4-5.53,4-9.62a10.91,10.91,0,0,0-2.18-6.82,19.45,19.45,0,0,0-5.89-5c-2.47-1.38-5.91-3-10.24-4.94a82.65,82.65,0,0,1-10.34-5.4,26.88,26.88,0,0,1-7.7-7.43,19.2,19.2,0,0,1-3.29-11.25,18.54,18.54,0,0,1,3.18-10.61,21.34,21.34,0,0,1,9.13-7.36,33.52,33.52,0,0,1,13.81-2.67,45.75,45.75,0,0,1,8.67.75c2.45.48,5.32,1.16,8.51,2,1.44.45,3.55.94,3.57.94l.32.07-.65,18.42h-7.21v-.39c0-3-.29-11-2-12.69a10.43,10.43,0,0,0-4.21-1.9,25.83,25.83,0,0,0-7.12-.93c-4.73,0-8.35,1-10.77,3s-3.59,4.82-3.59,8.54a10.6,10.6,0,0,0,2.18,6.82,20.15,20.15,0,0,0,5.53,4.76c2.23,1.32,5.84,3.16,10.72,5.47,4.57,2.17,8.34,4.17,11.22,5.92a26.16,26.16,0,0,1,7.54,7,17.25,17.25,0,0,1,3.19,10.41,21,21,0,0,1-3.17,10.95M1587,240.79a24.67,24.67,0,0,1-3.28,12.68,23.19,23.19,0,0,1-9.24,8.8c-4.39,2.36-11.19,3.2-15.69,3.2h-21.26V261l.36,0c1.2-.1,4.3-.7,4.3-2.17,0,0-.1-11.69-.1-18.5s.1-18.43.1-18.43c0-2.19-4.22-2.21-4.27-2.21h-.39v-4.55h21c4.51,0,11.35.83,15.77,3.17a23.85,23.85,0,0,1,9.36,8.77A24.37,24.37,0,0,1,1587,239.8Zm-55.43-34.46-3.57.59a4.9,4.9,0,0,0-4.12,4.86v35.45c0,11-2.66,19.37-7.91,24.84s-12.34,8.24-21.06,8.24c-10.4,0-18.18-2.84-23.12-8.42s-7.43-14.29-7.43-25.93V211.63a4.76,4.76,0,0,0-4-4.71l-3.51-.59v-6h26.68v6l-3.14.64a4.47,4.47,0,0,0-3.56,4.37v35.79c0,9.42,1.69,16.29,5,20.41s8.16,6.19,14.4,6.19,11-2.22,14.08-6.59,4.72-10.92,4.72-19.38V211.56a4.76,4.76,0,0,0-3.79-4.65l-2.81-.59v-6h23.09ZM1431.49,302h241V178.6h-241Z"/></g></g></g></svg>